<?xml version="1.0" encoding="utf-8"?>
<!-- Generator: Adobe Illustrator 26.0.3, SVG Export Plug-In . SVG Version: 6.00 Build 0)  -->
<svg version="1.1" id="Слой_1" xmlns="http://www.w3.org/2000/svg" xmlns:xlink="http://www.w3.org/1999/xlink" x="0px" y="0px"
	 viewBox="0 0 786.2 358.8" style="enable-background:new 0 0 786.2 358.8;" xml:space="preserve">
<style type="text/css">
	.st0{fill:#CC334D;stroke:#CC334D;stroke-width:8;stroke-miterlimit:10;}
	.st1{fill:#FFFFFF;stroke:#FCFCFC;stroke-width:8;stroke-miterlimit:10;}
</style>
<path class="st0" d="M281.9,27.6l-128.1,27c-3.7-3.8-7.8-7.1-12.4-9.8l138-29.1L281.9,27.6z"/>
<path class="st1" d="M269.2,92.6c0-5.9,1.4-11.8,4.1-17l-11.6-3.5c-1.3,2.8-2.3,5.7-3,8.7c-7.8-7-18.9-11.4-31.3-11.4
	c-23.6,0-42.8,16.1-42.8,36s19.2,36,42.8,36c17,0,31.7-8.4,38.6-20.5c1.4,2,2.9,3.9,4.5,5.6l11.4-5.6
	C273.8,113.7,269.2,103.4,269.2,92.6z M227.3,131.5c-17.2,0-31.2-11.7-31.2-26.2s14-26.2,31.2-26.2c14.7,0,27,8.5,30.3,20
	c0.2,1.5,0.5,3,0.8,4.5c0,0.5,0.1,1.1,0.1,1.6C258.5,119.8,244.6,131.5,227.3,131.5L227.3,131.5z"/>
<path class="st1" d="M705.4,92.6c0-5.9,1.4-11.8,4.1-17l-11.6-3.5c-1.3,2.8-2.3,5.7-3,8.7c-7.8-7-18.9-11.4-31.3-11.4
	c-23.6,0-42.8,16.1-42.8,36s19.2,36,42.8,36c17,0,31.7-8.4,38.6-20.5c1.4,2,2.9,3.9,4.5,5.6l11.4-5.6
	C710,113.7,705.3,103.4,705.4,92.6z M663.5,131.5c-17.2,0-31.2-11.7-31.2-26.2s14-26.2,31.2-26.2c14.7,0,27,8.5,30.3,20
	c0.2,1.5,0.5,3,0.8,4.5c0,0.5,0.1,1.1,0.1,1.6C694.7,119.8,680.7,131.5,663.5,131.5z"/>
<path class="st1" d="M202.9,151.3c-4.2-1.5-8.1-3.7-11.7-6.3L156,180.3c-8.1-8-17.8-14.4-28.3-18.7c17.7-10.4,28.6-29.5,28.5-50
	c0-32-26-58-58-58l0,0c-32,0-58,26-58,58l0,0c0,4.2,0.5,8.5,1.4,12.6h14.7c-1.2-4.1-1.8-8.3-1.8-12.6c0-24.2,19.6-43.8,43.8-43.8
	s43.8,19.6,43.8,43.8c0,22.3-16.7,41-38.8,43.5v14.3c1.6-0.1,3.2-0.3,4.7-0.6c15,2.3,28.9,9.3,39.7,19.9L96.3,240
	c-1.6,1.4-3.2,2.9-4.6,4.6c-5.1,5.9-8.3,13.2-9.3,20.9c-0.2,1.8-0.3,3.6-0.3,5.3c0,9.1,3.1,17.9,8.7,25c7.7,9.8,19.4,15.4,31.8,15.4
	c3.4,0,6.7-0.4,10-1.2c0.7-0.2,1.4-0.4,2.1-0.6c9.3-2.7,17.8-7.4,25.1-13.7c29.3-25.6,31-72,4.8-105.9L202.9,151.3z M163,270.8
	c-3.1,5.6-7.2,10.7-12,14.9c-4.7,4.1-10.1,7.5-16,9.8l0,0c-2.8,1.1-5.7,2-8.7,2.7l0,0c0,0,0,0-0.1,0c-1.2,0.2-2.4,0.3-3.7,0.2
	c-15.3,0-27.7-12.3-27.7-27.5c0,0,0,0,0-0.1c0-7.1,2.8-14,7.7-19.2l0.8-0.8l52.5-52.5C172.6,220.8,174.9,249.4,163,270.8L163,270.8z
	"/>
<path class="st1" d="M388.5,47.5l-47.8,76.7l-17.5,28l0,0l-4.4,7.1l-5.2,8.4l0,0c-0.8,1.5-1.3,3.2-1.3,4.9c0,5.6,4.5,10.1,10.1,10.1
	l0,0c3.3,0,6.3-1.6,8.2-4.3l8.7,5.5c-3.8,5.7-10.2,9.1-17,9.1c-10.5,0-19.2-7.9-20.3-18.3c-0.1-0.7-0.1-1.3-0.1-2
	c0-3.5,0.9-6.9,2.6-9.9l1-1.6l0.1-0.1l26.3-42.2l3.7-6c-5,0.9-10.2,0.5-15.1-1c-2.2-0.7-4.3-1.6-6.4-2.8c-2.6-1.5-5.1-3.4-7.2-5.6
	c-3.5-3.6-6-8-7.5-12.8c-2-6.6-1.9-13.7,0.5-20.2l0.2-0.6c0.6-1.6,1.3-3.1,2.2-4.6c0.8-1.4,1.7-2.7,2.7-3.9l-11.7,3.7l-3.6-11.4
	l25.6-8.1l0.2-0.1l15-4.8l-5.6,8.9l-4.2,6.7l0,0l-7,11.2l0,0l-3.2,5.1l0,0l0,0c-4.4,10-0.6,21.6,8.8,27c9.6,5.5,21.8,2.8,28.2-6.3
	l0,0l1-1.7l0.1-0.1L361,72l18.7-29.9L388.5,47.5z"/>
<path class="st1" d="M442.3,112.3c14.1-4.8,25.5-11.8,32.3-19c4.5-4.8,7-9.7,6.9-14.1c0-1.6-0.4-3.2-1.2-4.7
	c-5.8-11.6-31.8-13.7-58.4-4.9c-1.3,0.4-2.6,0.8-3.9,1.2c-6.1,2-11.9,4.9-17.2,8.5c-0.1,0-0.1,0.1-0.2,0.1
	c-26.8,17.8-21,37.9-17.5,45c9.9,19.7,41.5,27.6,70.7,17.7c7.1-2.3,13.7-5.8,19.7-10.2l-9.1-7.5c-4.6,3.6-9.8,6.3-15.4,8.2
	c-21.4,7.3-44.6,1.5-51.8-13c-0.5-1.1-1-2.2-1.3-3.3C407.4,119.4,424.8,118.2,442.3,112.3z M422.7,80.4c17.4-7.1,41.7-7.7,45.3-0.9
	s-12.6,20.4-29.7,26.3c-16,5.5-38.2,5.9-41.7-0.6S408.2,86.3,422.7,80.4z"/>
<path class="st1" d="M645.6,35.3l-96.5,20.3l-62.2,131.6l-11-5.2l58.3-123.2l-32.4,6.8c0.4-1.4,0.6-2.8,0.6-4.2
	c0-1.6-0.4-3.2-1.2-4.7c-0.6-1.1-1.3-2.1-2.2-3l144-30.4L645.6,35.3z"/>
<polygon class="st1" points="587.2,64.9 572.9,93.2 565,109 560.8,117.4 560.8,117.4 558.7,121.7 522.2,194.2 512.7,189.4 
	540.1,134.8 552.2,110.6 552.2,110.6 553.3,108.5 559.6,95.9 573.8,67.7 "/>
<polygon class="st1" points="635.7,54.6 566.5,112.6 566.5,112.6 560.8,117.4 560.8,117.4 557.9,119.8 540.1,134.8 552.2,110.6 
	552.2,110.6 553.6,109.4 562.2,102.2 572.9,93.2 613.4,59.3 613.4,59.3 "/>
<polygon class="st1" points="589.1,167.2 579.2,171.3 558.7,121.7 557.9,119.8 553.6,109.4 553.2,108.5 559.6,95.9 562.2,102.2 
	565,109 566.5,112.6 "/>
<path class="st0" d="M164.6,189.8l-8.5-9.5c-8.1-8-17.7-14.4-28.3-18.7c17.7-10.4,28.6-29.5,28.5-50c0-18.4-8.7-35.7-23.5-46.6v19.7
	c6.1,7.7,8.6,17.3,8.6,27.1c0,22.3-16.3,40.6-38.4,43.1l0.1,15.2c1.6-0.1,3.4-0.9,4.9-1.2c39.6,7.5,55.3,42.8,57.7,49.7
	c9.4,27.9-1,58.6-26.2,73.8c-20.5,12.4-33.4,0.8-37.2-3.4l-16.3,1c1.1,2.1,14.3,21.3,35.5,21.2c17.5-0.1,31.2-9.2,38.5-15.5
	C189.1,270.1,190.9,223.7,164.6,189.8z"/>
</svg>
